<svg xmlns="http://www.w3.org/2000/svg" version="1.1" width="1220px" height="1220px" xmlns:xlink="http://www.w3.org/1999/xlink">
	<g>
		<path style="opacity:1" d="M 844.5,466.5 C 885.742,463.186 915.242,479.852 933,516.5C 935.404,524.008 937.07,531.675 938,539.5C 938.5,620.833 938.667,702.166 938.5,783.5C 921.797,783.788 905.131,783.788 888.5,783.5C 888.667,703.166 888.5,622.833 888,542.5C 884.356,527.193 874.689,518.526 859,516.5C 844.213,518.384 834.547,526.384 830,540.5C 829.5,621.499 829.333,702.499 829.5,783.5C 812.84,784.818 796.173,784.818 779.5,783.5C 779.333,700.499 779.5,617.499 780,534.5C 787.578,498.357 809.078,475.69 844.5,466.5 Z">
		</path>
	</g>
	<g>
		<path style="opacity:1" d="M 983.5,466.5 C 1002.66,464.497 1019.16,470.164 1033,483.5C 1054.89,463.09 1078.39,461.257 1103.5,478C 1122.46,495.096 1126.96,515.596 1117,539.5C 1115.07,542.453 1113.24,545.453 1111.5,548.5C 1086.6,574.046 1060.93,599.213 1034.5,624C 1033.17,624.667 1031.83,624.667 1030.5,624C 1021.27,614.859 1012.27,605.525 1003.5,596C 986.77,580.943 970.27,565.443 954,549.5C 943.684,536.584 940.184,521.917 943.5,505.5C 949.605,484.853 962.938,471.853 983.5,466.5 Z">
		</path>
	</g>
	<g>
		<path style="opacity:1" d="M 668.5,474.5 C 690.727,473.611 711.727,477.944 731.5,487.5C 740.762,493.269 749.262,499.936 757,507.5C 778.997,536.525 778.997,565.525 757,594.5C 741.293,610.775 722.127,620.942 699.5,625C 692.002,625.304 684.668,626.137 677.5,627.5C 662.341,627.06 647.674,624.226 633.5,619C 616.165,611.653 602.165,600.319 591.5,585C 582.482,568.59 579.982,551.09 584,532.5C 585.618,529.709 586.785,526.709 587.5,523.5C 590.993,518.054 594.493,512.721 598,507.5C 617.498,488.002 640.998,477.002 668.5,474.5 Z">
		</path>
	</g>
	<g>
		<path style="opacity:1" d="M 152.5,476.5 C 176.272,471.937 196.938,477.603 214.5,493.5C 232.009,477.119 252.675,471.619 276.5,477C 303.011,485.175 319.511,502.675 326,529.5C 326.667,561.833 326.667,594.167 326,626.5C 309.577,627.492 293.077,627.825 276.5,627.5C 276.667,597.165 276.5,566.832 276,536.5C 274.619,534.365 273.619,532.032 273,529.5C 265.73,521.487 257.564,520.487 248.5,526.5C 246.323,528.35 244.823,530.684 244,533.5C 243.745,557.674 243.245,581.84 242.5,606C 244.091,612.602 243.758,619.102 241.5,625.5C 222.667,627.47 203.667,628.137 184.5,627.5C 184.667,596.832 184.5,566.165 184,535.5C 178.766,523.864 170.266,520.697 158.5,526C 154.889,528.166 152.723,531.332 152,535.5C 151.833,565.506 151.333,595.506 150.5,625.5C 142.33,626.803 133.997,627.47 125.5,627.5C 117.1,627.484 108.934,626.817 101,625.5C 100.495,599.591 100.495,573.591 101,547.5C 100.278,519.241 111.778,497.741 135.5,483C 141.283,480.761 146.949,478.594 152.5,476.5 Z">
		</path>
	</g>
	<g>
		<path style="opacity:1" d="M 438.5,480.5 C 454.869,480.131 471.202,480.631 487.5,482C 496.648,484.159 505.315,487.493 513.5,492C 514.777,494.466 514.777,496.966 513.5,499.5C 508.834,511.495 504.167,523.495 499.5,535.5C 488.903,530.93 477.903,527.43 466.5,525C 461.167,524.333 455.833,524.333 450.5,525C 449.328,525.419 448.328,526.085 447.5,527C 457.231,530.401 467.231,532.734 477.5,534C 490.919,537.137 502.419,543.637 512,553.5C 521.767,568.943 522.6,584.943 514.5,601.5C 511.555,606.445 507.888,610.778 503.5,614.5C 484.795,627.126 464.128,631.959 441.5,629C 423.335,628.211 406.335,623.544 390.5,615C 389.427,613.687 388.76,612.187 388.5,610.5C 389.566,606.803 390.732,603.136 392,599.5C 396.588,589.915 401.088,580.248 405.5,570.5C 415.356,575.399 425.69,579.233 436.5,582C 445.614,583.845 454.614,583.845 463.5,582C 451.993,578.536 440.326,575.536 428.5,573C 399.692,564.901 387.525,546.068 392,516.5C 396.767,504.167 404.934,494.667 416.5,488C 423.534,484.378 430.867,481.878 438.5,480.5 Z">
		</path>
	</g>
	<g>
		<path style="opacity:1" d="M 382.5,505.5 C 381.169,553.335 381.169,601.335 382.5,649.5C 384.145,648.964 384.478,648.297 383.5,647.5C 387.921,646.055 392.588,645.222 397.5,645C 435.833,644.333 474.167,644.333 512.5,645C 547.272,649.108 568.938,668.108 577.5,702C 581.567,740.86 565.567,767.193 529.5,781C 523.963,782.726 518.296,783.726 512.5,784C 473.5,784.667 434.5,784.667 395.5,784C 388.314,783.995 381.481,782.495 375,779.5C 355.621,789.255 341.287,784.588 332,765.5C 331.333,677.833 331.333,590.167 332,502.5C 336.693,485.527 347.859,478.693 365.5,482C 376.174,486.172 381.841,494.005 382.5,505.5 Z">
		</path>
	</g>
	<g>
		<path style="opacity:1" d="M 544.5,481.5 C 559.596,479.455 569.763,485.455 575,499.5C 575.933,523.829 576.766,548.163 577.5,572.5C 577.611,590.989 576.945,609.322 575.5,627.5C 559.145,628.363 542.812,628.363 526.5,627.5C 526.333,584.165 526.5,540.832 527,497.5C 530.302,489.286 536.135,483.953 544.5,481.5 Z">
		</path>
	</g>
	<g>
		<path style="opacity:1" d="M 780.5,441.5 C 800.49,441.316 808.657,450.983 805,470.5C 796.327,491.418 780.827,500.251 758.5,497C 747.922,490.658 744.422,481.492 748,469.5C 753.847,454.189 764.681,444.856 780.5,441.5 Z">
		</path>
	</g>
	<g>
		<path style="opacity:1" fill="#960712" d="M 983.5,514.5 C 983.878,516.921 984.545,519.254 985.5,521.5C 982.551,519.735 981.885,517.402 983.5,514.5 Z">
		</path>
	</g>
	<g>
		<path style="opacity:1" fill="#1f1f68" d="M 685.5,526.5 C 678.138,526.365 670.804,526.698 663.5,527.5C 667.56,525.983 671.893,525.316 676.5,525.5C 679.686,525.502 682.686,525.835 685.5,526.5 Z">
		</path>
	</g>
	<g>
		<path style="opacity:1" fill="#536ff9" d="M 685.5,526.5 C 696.879,527.457 706.879,531.623 715.5,539C 717.79,540.777 719.457,542.944 720.5,545.5C 721.299,548.43 721.632,551.43 721.5,554.5C 718.909,559.925 715.076,564.258 710,567.5C 702.776,570.91 695.276,573.743 687.5,576C 679.464,576.665 671.464,576.331 663.5,575C 659.048,574.399 655.048,572.899 651.5,570.5C 649.814,567.153 647.147,564.82 643.5,563.5C 643.709,562.914 644.043,562.414 644.5,562C 643.167,561.667 641.833,561.333 640.5,561C 640.833,560.667 641.167,560.333 641.5,560C 639.336,558.978 637.336,557.811 635.5,556.5C 634.833,555.5 634.167,554.5 633.5,553.5C 633.401,550.763 633.735,548.096 634.5,545.5C 641.407,535.206 651.074,529.206 663.5,527.5C 670.804,526.698 678.138,526.365 685.5,526.5 Z">
		</path>
	</g>
	<g>
		<path style="opacity:1" fill="#536ff9" d="M 635.5,556.5 C 637.336,557.811 639.336,558.978 641.5,560C 641.167,560.333 640.833,560.667 640.5,561C 641.833,561.333 643.167,561.667 644.5,562C 644.043,562.414 643.709,562.914 643.5,563.5C 647.147,564.82 649.814,567.153 651.5,570.5C 644.089,568.14 638.756,563.473 635.5,556.5 Z">
		</path>
	</g>
	<g>
		<path style="opacity:1" fill="#f61817" d="M 985.5,521.5 C 984.545,519.254 983.878,516.921 983.5,514.5C 985.294,512.203 987.294,510.037 989.5,508C 992.167,507.333 994.833,507.333 997.5,508C 1000.64,511.14 1003.81,514.306 1007,517.5C 1015.36,528.905 1024.2,539.905 1033.5,550.5C 1044.41,537.014 1055.07,523.348 1065.5,509.5C 1071.46,507.203 1076.29,508.536 1080,513.5C 1080.67,515.5 1080.67,517.5 1080,519.5C 1065.81,536.624 1050.31,552.291 1033.5,566.5C 1031.06,565.233 1028.72,563.733 1026.5,562C 1012.88,548.216 999.218,534.716 985.5,521.5 Z">
		</path>
	</g>
	<g>
		<path style="opacity:1" fill="#041148" d="M 634.5,545.5 C 633.735,548.096 633.401,550.763 633.5,553.5C 632.848,552.551 632.514,551.385 632.5,550C 632.307,547.992 632.974,546.492 634.5,545.5 Z">
		</path>
	</g>
	<g>
		<path style="opacity:1" d="M 720.5,545.5 C 721.117,545.611 721.617,545.944 722,546.5C 722.801,549.367 722.634,552.034 721.5,554.5C 721.632,551.43 721.299,548.43 720.5,545.5 Z">
		</path>
	</g>
	<g>
		<path style="opacity:1" d="M 382.5,505.5 C 382.168,553.003 382.501,600.336 383.5,647.5C 384.478,648.297 384.145,648.964 382.5,649.5C 381.169,601.335 381.169,553.335 382.5,505.5 Z">
		</path>
	</g>
	<g>
		<path style="opacity:1" d="M 140.5,629.5 C 144.306,629.02 147.639,630.02 150.5,632.5C 151.333,661.828 151.833,691.161 152,720.5C 156.945,731.937 165.112,735.27 176.5,730.5C 179.63,727.309 182.13,723.642 184,719.5C 184.5,690.169 184.667,660.835 184.5,631.5C 198.835,629.824 211.168,633.824 221.5,643.5C 253.404,625.507 282.904,628.841 310,653.5C 313.234,657.622 316.234,661.955 319,666.5C 325.339,679.743 327.839,693.743 326.5,708.5C 309.833,708.5 293.167,708.5 276.5,708.5C 278.572,699.148 275.905,691.648 268.5,686C 258.808,681.345 250.975,683.511 245,692.5C 243.872,700.118 243.039,707.784 242.5,715.5C 243.646,737.809 243.812,760.143 243,782.5C 242.5,783 242,783.5 241.5,784C 235.502,784.092 229.502,783.759 223.5,783C 216.86,780.366 210.693,776.866 205,772.5C 189.765,782.882 172.931,786.382 154.5,783C 123.825,775.322 105.991,755.822 101,724.5C 100.333,705.833 100.333,687.167 101,668.5C 103.071,655.443 109.571,645.276 120.5,638C 127.086,634.649 133.752,631.816 140.5,629.5 Z">
		</path>
	</g>
	<g>
		<path style="opacity:1" d="M 666.5,632.5 C 688.538,630.784 709.371,634.784 729,644.5C 734.056,637.458 741.056,633.791 750,633.5C 764.537,635.037 772.871,643.037 775,657.5C 775.667,693.833 775.667,730.167 775,766.5C 769.462,781.023 758.962,786.857 743.5,784C 737.412,781.872 732.246,778.372 728,773.5C 697.412,786.74 666.245,787.906 634.5,777C 620.897,771.138 609.063,762.971 599,752.5C 596.512,748.693 593.845,745.027 591,741.5C 575.577,710.123 580.41,682.289 605.5,658C 623.353,643.549 643.686,635.049 666.5,632.5 Z">
		</path>
	</g>
	<g>
		<path style="opacity:1" d="M 1024.5,631.5 C 1032.86,631.526 1041.19,632.026 1049.5,633C 1058.62,634.987 1067.45,637.821 1076,641.5C 1094.03,627.574 1109.03,630.24 1121,649.5C 1121.51,686.173 1121.84,722.839 1122,759.5C 1121.57,769.467 1117.07,776.967 1108.5,782C 1101.6,784.738 1094.6,785.071 1087.5,783C 1082.77,780.614 1078.44,777.78 1074.5,774.5C 1051.96,783.914 1028.62,786.08 1004.5,781C 981.083,774.394 962.916,760.894 950,740.5C 934.199,700.368 944.032,668.534 979.5,645C 985.008,642.156 990.675,639.489 996.5,637C 1005.77,634.181 1015.11,632.347 1024.5,631.5 Z">
		</path>
	</g>
	<g>
		<path style="opacity:1" fill="#fdbc5b" d="M 1019.5,684.5 C 1019.05,685.458 1018.38,686.292 1017.5,687C 1014.09,687.98 1010.76,689.147 1007.5,690.5C 1008.17,690.833 1008.83,691.167 1009.5,691.5C 1020.78,687.753 1032.11,687.586 1043.5,691C 1042.21,691.49 1040.87,691.657 1039.5,691.5C 1039.5,692.5 1039.5,693.5 1039.5,694.5C 1042.69,693.485 1045.86,693.485 1049,694.5C 1053.84,697.351 1058.68,700.185 1063.5,703C 1062.65,705.417 1061.98,707.917 1061.5,710.5C 1062.89,711.303 1064.06,712.97 1065,715.5C 1065.49,714.451 1065.33,713.451 1064.5,712.5C 1064.94,711.494 1065.6,711.494 1066.5,712.5C 1067.48,709.572 1067.82,706.572 1067.5,703.5C 1069.29,713.253 1065.62,720.586 1056.5,725.5C 1056.39,724.883 1056.06,724.383 1055.5,724C 1060.54,721.493 1062.04,717.659 1060,712.5C 1059.67,713.167 1059.33,713.833 1059,714.5C 1058.17,713.5 1057.33,712.5 1056.5,711.5C 1056.87,713.506 1056.37,715.506 1055,717.5C 1053.82,716.269 1052.65,716.269 1051.5,717.5C 1050.5,719.167 1049.17,720.5 1047.5,721.5C 1047.71,722.086 1048.04,722.586 1048.5,723C 1042.76,724.145 1042.43,725.645 1047.5,727.5C 1040.79,728.881 1034.12,729.881 1027.5,730.5C 1023.56,728.965 1019.56,727.632 1015.5,726.5C 1014.91,722.813 1013.25,719.313 1010.5,716C 1010.96,715.586 1011.29,715.086 1011.5,714.5C 1010.49,713.319 1009.32,712.319 1008,711.5C 1006.84,712.187 1005.67,712.353 1004.5,712C 1004.87,707.762 1005.87,703.762 1007.5,700C 1007.17,699.667 1006.83,699.333 1006.5,699C 1009.33,697.025 1012.33,695.192 1015.5,693.5C 1011.71,692.695 1008.04,692.362 1004.5,692.5C 1003.3,694.297 1001.64,695.297 999.5,695.5C 1004.57,689.289 1011.24,685.622 1019.5,684.5 Z">
		</path>
	</g>
	<g>
		<path style="opacity:1" fill="#81d758" d="M 720.5,711.5 C 720.5,709.833 720.5,708.167 720.5,706.5C 719.5,706.5 718.5,706.5 717.5,706.5C 717.945,703.635 717.278,701.135 715.5,699C 711.938,700.069 708.938,699.069 706.5,696C 703.167,695.333 699.833,695.333 696.5,696C 697.563,697.188 698.897,697.688 700.5,697.5C 700.5,698.5 700.5,699.5 700.5,700.5C 704.016,699.429 706.349,700.929 707.5,705C 706.591,706.789 706.424,708.623 707,710.5C 707.893,709.289 708.726,709.289 709.5,710.5C 707.711,712.033 705.711,713.033 703.5,713.5C 703.67,714.822 703.337,715.989 702.5,717C 697.847,718.323 693.181,719.656 688.5,721C 690.645,721.743 690.811,722.576 689,723.5C 681.685,723.536 674.185,723.536 666.5,723.5C 666.762,722.022 666.429,720.689 665.5,719.5C 664.719,720.737 663.719,721.737 662.5,722.5C 661.304,722.154 661.304,721.654 662.5,721C 660.833,720.667 659.167,720.333 657.5,720C 654.582,716.741 651.415,713.908 648,711.5C 647.149,714.612 645.983,714.946 644.5,712.5C 646.303,711.406 646.636,709.739 645.5,707.5C 645.437,705.519 646.104,703.852 647.5,702.5C 650.08,701.451 652.746,700.784 655.5,700.5C 655.231,698.571 655.731,696.905 657,695.5C 658.309,697.891 659.309,697.891 660,695.5C 661.183,696.731 662.349,696.731 663.5,695.5C 662.147,694.476 661.48,693.143 661.5,691.5C 657.335,691.444 653.669,692.777 650.5,695.5C 649.482,694.807 648.482,694.141 647.5,693.5C 650.593,691.966 653.26,689.966 655.5,687.5C 676.008,681.543 695.341,684.043 713.5,695C 719.716,699.222 722.05,704.722 720.5,711.5 Z">
		</path>
	</g>
	<g>
		<path style="opacity:1" fill="#fcc15a" d="M 1056.5,725.5 C 1045.25,732.194 1033.25,734.194 1020.5,731.5C 1014.85,728.676 1009.19,725.843 1003.5,723C 1002.66,721.989 1002.33,720.822 1002.5,719.5C 1001.17,719.5 999.833,719.5 998.5,719.5C 996.782,715.877 995.449,712.044 994.5,708C 996.059,703.726 997.726,699.559 999.5,695.5C 1001.64,695.297 1003.3,694.297 1004.5,692.5C 1008.04,692.362 1011.71,692.695 1015.5,693.5C 1012.33,695.192 1009.33,697.025 1006.5,699C 1006.83,699.333 1007.17,699.667 1007.5,700C 1005.87,703.762 1004.87,707.762 1004.5,712C 1005.67,712.353 1006.84,712.187 1008,711.5C 1009.32,712.319 1010.49,713.319 1011.5,714.5C 1011.29,715.086 1010.96,715.586 1010.5,716C 1013.25,719.313 1014.91,722.813 1015.5,726.5C 1019.56,727.632 1023.56,728.965 1027.5,730.5C 1034.12,729.881 1040.79,728.881 1047.5,727.5C 1042.43,725.645 1042.76,724.145 1048.5,723C 1048.04,722.586 1047.71,722.086 1047.5,721.5C 1049.17,720.5 1050.5,719.167 1051.5,717.5C 1052.65,716.269 1053.82,716.269 1055,717.5C 1056.37,715.506 1056.87,713.506 1056.5,711.5C 1057.33,712.5 1058.17,713.5 1059,714.5C 1059.33,713.833 1059.67,713.167 1060,712.5C 1062.04,717.659 1060.54,721.493 1055.5,724C 1056.06,724.383 1056.39,724.883 1056.5,725.5 Z">
		</path>
	</g>
	<g>
		<path style="opacity:1" fill="#fee356" d="M 511.5,695.5 C 516.11,695.971 520.11,697.804 523.5,701C 525.494,703.158 526.828,705.658 527.5,708.5C 525.437,707.451 523.437,707.784 521.5,709.5C 520.5,713.5 519.5,717.5 518.5,721.5C 517.155,722.347 516.155,723.513 515.5,725C 514.207,725.49 512.873,725.657 511.5,725.5C 511.5,726.5 511.5,727.5 511.5,728.5C 474.839,729.03 438.172,729.364 401.5,729.5C 397.886,728.424 394.886,726.424 392.5,723.5C 391.544,724.865 390.878,726.365 390.5,728C 392.112,729.482 393.112,731.315 393.5,733.5C 389.929,732.071 387.262,729.737 385.5,726.5C 384.245,721.358 383.245,716.192 382.5,711C 383.701,710.097 384.535,708.931 385,707.5C 385.333,708.167 385.667,708.833 386,709.5C 386.502,706.487 387.002,703.487 387.5,700.5C 389.147,698.674 391.147,697.34 393.5,696.5C 432.848,697.974 472.181,697.64 511.5,695.5 Z">
		</path>
	</g>
	<g>
		<path style="opacity:1" fill="#fee356" d="M 527.5,708.5 C 530.734,721.727 525.734,730.394 512.5,734.5C 472.809,734.81 433.143,734.477 393.5,733.5C 393.112,731.315 392.112,729.482 390.5,728C 390.878,726.365 391.544,724.865 392.5,723.5C 394.886,726.424 397.886,728.424 401.5,729.5C 438.172,729.364 474.839,729.03 511.5,728.5C 511.5,727.5 511.5,726.5 511.5,725.5C 512.873,725.657 514.207,725.49 515.5,725C 516.155,723.513 517.155,722.347 518.5,721.5C 519.5,717.5 520.5,713.5 521.5,709.5C 523.437,707.784 525.437,707.451 527.5,708.5 Z">
		</path>
	</g>
	<g>
		<path style="opacity:1" fill="#fcda57" d="M 511.5,695.5 C 472.181,697.64 432.848,697.974 393.5,696.5C 394.263,695.732 395.263,695.232 396.5,695C 435.002,694.169 473.336,694.336 511.5,695.5 Z">
		</path>
	</g>
	<g>
		<path style="opacity:1" fill="#fbc055" d="M 1067.5,703.5 C 1067.82,706.572 1067.48,709.572 1066.5,712.5C 1065.6,711.494 1064.94,711.494 1064.5,712.5C 1065.33,713.451 1065.49,714.451 1065,715.5C 1064.06,712.97 1062.89,711.303 1061.5,710.5C 1061.98,707.917 1062.65,705.417 1063.5,703C 1058.68,700.185 1053.84,697.351 1049,694.5C 1045.86,693.485 1042.69,693.485 1039.5,694.5C 1039.5,693.5 1039.5,692.5 1039.5,691.5C 1040.87,691.657 1042.21,691.49 1043.5,691C 1032.11,687.586 1020.78,687.753 1009.5,691.5C 1008.83,691.167 1008.17,690.833 1007.5,690.5C 1010.76,689.147 1014.09,687.98 1017.5,687C 1018.38,686.292 1019.05,685.458 1019.5,684.5C 1036.05,680.433 1050.72,684.1 1063.5,695.5C 1065.37,697.91 1066.7,700.577 1067.5,703.5 Z">
		</path>
	</g>
	<g>
		<path style="opacity:1" fill="#91d86a" d="M 655.5,687.5 C 653.26,689.966 650.593,691.966 647.5,693.5C 646.829,694.847 646.829,696.014 647.5,697C 645.527,697.495 643.527,697.662 641.5,697.5C 642.546,702.282 640.879,704.116 636.5,703C 636.957,703.414 637.291,703.914 637.5,704.5C 634.005,706.508 633.505,709.175 636,712.5C 637.183,711.269 638.349,711.269 639.5,712.5C 637.096,714.598 637.429,716.432 640.5,718C 639.944,718.383 639.611,718.883 639.5,719.5C 634.409,715.398 632.576,710.064 634,703.5C 639.604,696.062 646.771,690.729 655.5,687.5 Z">
		</path>
	</g>
	<g>
		<path style="opacity:1" fill="#f3e276" d="M 387.5,700.5 C 387.002,703.487 386.502,706.487 386,709.5C 385.667,708.833 385.333,708.167 385,707.5C 384.535,708.931 383.701,710.097 382.5,711C 383.245,716.192 384.245,721.358 385.5,726.5C 382.404,723.214 381.071,719.214 381.5,714.5C 381.339,708.83 383.339,704.164 387.5,700.5 Z">
		</path>
	</g>
	<g>
		<path style="opacity:1" fill="#e5be85" d="M 999.5,695.5 C 997.726,699.559 996.059,703.726 994.5,708C 995.449,712.044 996.782,715.877 998.5,719.5C 991.547,711.145 991.881,703.145 999.5,695.5 Z">
		</path>
	</g>
	<g>
		<path style="opacity:1" fill="#83dd5b" d="M 720.5,711.5 C 718.947,716.576 715.947,720.743 711.5,724C 688.184,736.99 665.184,736.657 642.5,723C 641.29,721.961 640.29,720.794 639.5,719.5C 639.611,718.883 639.944,718.383 640.5,718C 637.429,716.432 637.096,714.598 639.5,712.5C 638.349,711.269 637.183,711.269 636,712.5C 633.505,709.175 634.005,706.508 637.5,704.5C 637.291,703.914 636.957,703.414 636.5,703C 640.879,704.116 642.546,702.282 641.5,697.5C 643.527,697.662 645.527,697.495 647.5,697C 646.829,696.014 646.829,694.847 647.5,693.5C 648.482,694.141 649.482,694.807 650.5,695.5C 653.669,692.777 657.335,691.444 661.5,691.5C 661.48,693.143 662.147,694.476 663.5,695.5C 662.349,696.731 661.183,696.731 660,695.5C 659.309,697.891 658.309,697.891 657,695.5C 655.731,696.905 655.231,698.571 655.5,700.5C 652.746,700.784 650.08,701.451 647.5,702.5C 646.104,703.852 645.437,705.519 645.5,707.5C 646.636,709.739 646.303,711.406 644.5,712.5C 645.983,714.946 647.149,714.612 648,711.5C 651.415,713.908 654.582,716.741 657.5,720C 659.167,720.333 660.833,720.667 662.5,721C 661.304,721.654 661.304,722.154 662.5,722.5C 663.719,721.737 664.719,720.737 665.5,719.5C 666.429,720.689 666.762,722.022 666.5,723.5C 674.185,723.536 681.685,723.536 689,723.5C 690.811,722.576 690.645,721.743 688.5,721C 693.181,719.656 697.847,718.323 702.5,717C 703.337,715.989 703.67,714.822 703.5,713.5C 705.711,713.033 707.711,712.033 709.5,710.5C 708.726,709.289 707.893,709.289 707,710.5C 706.424,708.623 706.591,706.789 707.5,705C 706.349,700.929 704.016,699.429 700.5,700.5C 700.5,699.5 700.5,698.5 700.5,697.5C 698.897,697.688 697.563,697.188 696.5,696C 699.833,695.333 703.167,695.333 706.5,696C 708.938,699.069 711.938,700.069 715.5,699C 717.278,701.135 717.945,703.635 717.5,706.5C 718.5,706.5 719.5,706.5 720.5,706.5C 720.5,708.167 720.5,709.833 720.5,711.5 Z">
		</path>
	</g>
	<g>
		<path style="opacity:1" fill="#deb478" d="M 998.5,719.5 C 999.833,719.5 1001.17,719.5 1002.5,719.5C 1002.33,720.822 1002.66,721.989 1003.5,723C 1009.19,725.843 1014.85,728.676 1020.5,731.5C 1011.68,730.092 1004.35,726.092 998.5,719.5 Z">
		</path>
	</g>
	<g>
		<path style="opacity:1" fill="#daa951" d="M 393.5,733.5 C 433.143,734.477 472.809,734.81 512.5,734.5C 474.002,735.665 435.336,735.831 396.5,735C 395.263,734.768 394.263,734.268 393.5,733.5 Z">
		</path>
	</g>
</svg>
