<?xml version="1.0" standalone="no"?>
<!DOCTYPE svg PUBLIC "-//W3C//DTD SVG 20010904//EN"
 "http://www.w3.org/TR/2001/REC-SVG-20010904/DTD/svg10.dtd">
<svg version="1.0" xmlns="http://www.w3.org/2000/svg"
 width="1220.000000pt" height="1220.000000pt" viewBox="0 0 1220.000000 1220.000000"
 preserveAspectRatio="xMidYMid meet">

<g transform="translate(0.000000,1220.000000) scale(0.100000,-0.100000)"
fill="#000000" stroke="none">
<path d="M7736 7770 c-164 -58 -276 -205 -277 -361 -1 -73 27 -127 88 -174
l48 -37 95 4 c119 5 188 36 271 119 76 76 112 152 117 246 4 65 1 78 -22 118
-42 70 -91 98 -184 102 -59 3 -90 -1 -136 -17z"/>
<path d="M8468 7510 c-286 -52 -512 -249 -611 -535 l-32 -90 -3 -1257 -2
-1258 230 0 230 0 1 53 c1 28 1 563 0 1187 -2 1220 -3 1190 48 1274 55 89 172
156 269 156 53 -1 146 -35 190 -71 16 -13 41 -41 56 -61 59 -81 56 -12 56
-1329 l0 -1209 240 0 241 0 -4 1233 c-3 1353 1 1266 -63 1426 -52 131 -163
271 -278 350 -63 44 -179 97 -251 116 -71 19 -251 28 -317 15z"/>
<path d="M9833 7505 c-85 -19 -176 -69 -244 -135 -105 -104 -154 -225 -147
-369 3 -75 9 -98 40 -164 21 -42 51 -95 69 -116 27 -34 175 -177 673 -652 92
-88 114 -105 127 -95 9 6 177 169 373 361 375 367 426 427 465 542 23 69 28
186 10 262 -26 116 -136 255 -245 313 -182 97 -418 69 -564 -68 -26 -24 -50
-44 -55 -44 -4 0 -30 21 -59 47 -62 56 -149 98 -242 118 -83 18 -120 18 -201
0z"/>
<path d="M6690 7429 c-630 -53 -1014 -560 -778 -1028 101 -201 314 -358 583
-429 91 -25 116 -27 285 -27 211 1 293 16 449 83 220 96 398 273 463 460 19
57 23 87 23 197 0 118 -3 137 -29 208 -34 94 -77 160 -160 246 -150 156 -393
267 -626 286 -41 3 -84 7 -95 9 -11 1 -63 -1 -115 -5z m476 -641 l29 -33 -35
30 c-19 17 -37 31 -39 33 -2 1 0 2 5 2 6 0 23 -15 40 -32z m-776 -18 c-6 -11
-13 -20 -16 -20 -2 0 0 9 6 20 6 11 13 20 16 20 2 0 0 -9 -6 -20z m-30 -59
c-4 -16 -6 -32 -2 -35 3 -3 0 -6 -6 -6 -15 0 -15 25 -2 51 15 28 20 23 10 -10z
m860 -16 c0 -5 -5 -3 -10 5 -5 8 -10 20 -10 25 0 6 5 3 10 -5 5 -8 10 -19 10
-25z m-9 -47 c-5 -13 -17 -30 -27 -38 -18 -15 -18 -14 -1 13 10 15 15 27 12
27 -3 0 0 6 7 14 17 19 20 14 9 -16z m-841 8 c0 -3 -4 -8 -10 -11 -5 -3 -10
-1 -10 4 0 6 5 11 10 11 6 0 10 -2 10 -4z m44 -59 c4 4 4 0 0 -10 -8 -22 -9
-22 -29 11 -18 27 -18 27 2 9 11 -9 23 -14 27 -10z m731 -32 c-16 -13 -34 -24
-39 -25 -6 0 5 11 24 25 44 32 54 32 15 0z m-704 -12 c13 -16 12 -17 -3 -4
-10 7 -18 15 -18 17 0 8 8 3 21 -13z m526 -69 c-3 -3 -12 -4 -19 -1 -8 3 -5 6
6 6 11 1 17 -2 13 -5z"/>
<path d="M1575 7421 c-133 -22 -248 -84 -355 -192 -58 -57 -86 -96 -118 -160
-69 -139 -72 -163 -72 -676 l0 -453 235 0 235 0 0 448 c0 417 2 450 19 489 60
131 262 131 322 0 17 -39 19 -72 19 -490 l0 -447 278 2 277 3 5 460 c4 412 7
463 22 492 36 65 124 103 196 83 56 -15 115 -69 130 -118 8 -28 12 -173 12
-481 l0 -441 241 0 241 0 -4 473 c-5 530 -5 527 -80 669 -121 226 -376 366
-631 343 -131 -11 -230 -50 -339 -133 l-64 -49 -49 39 c-59 48 -159 99 -235
122 -65 20 -214 28 -285 17z"/>
<path d="M4336 7360 c-279 -74 -436 -279 -399 -519 22 -142 89 -235 220 -303
78 -41 159 -66 326 -102 124 -27 181 -49 174 -69 -9 -28 -152 -35 -270 -13
-78 15 -209 63 -263 97 -44 27 -52 24 -73 -23 -136 -311 -152 -351 -139 -360
45 -32 189 -90 283 -114 104 -27 121 -29 325 -29 207 0 218 1 295 27 250 84
388 263 372 478 -14 183 -106 295 -301 367 -50 18 -76 25 -243 63 -144 33
-183 47 -183 66 0 25 43 37 132 36 100 -1 201 -25 305 -72 79 -36 90 -37 98
-7 4 12 38 97 76 189 38 92 69 171 69 176 0 18 -165 84 -269 108 -92 21 -130
24 -286 23 -141 -1 -195 -5 -249 -19z"/>
<path d="M3497 7356 c-58 -21 -103 -61 -131 -118 l-26 -52 0 -1318 0 -1319 25
-48 c27 -54 71 -95 130 -122 58 -27 110 -24 184 11 l63 30 82 -27 81 -28 640
0 c638 0 640 0 720 23 126 37 209 86 306 182 74 72 93 99 132 180 58 120 71
188 65 337 -4 93 -10 132 -30 185 -75 200 -238 356 -448 427 l-75 26 -604 3
c-553 3 -722 -2 -773 -23 -17 -7 -18 31 -18 717 0 800 1 792 -63 865 -63 72
-171 100 -260 69z m1679 -2128 c55 -30 92 -75 109 -134 15 -51 15 -59 0 -105
-21 -61 -86 -122 -150 -138 -29 -7 -219 -11 -583 -11 -612 0 -613 0 -676 71
-44 48 -56 76 -56 134 0 81 42 147 114 181 l51 24 580 -2 c527 -3 583 -5 611
-20z"/>
<path d="M5450 7361 c-103 -32 -160 -105 -175 -226 -4 -31 -4 -315 0 -631 l7
-574 240 0 240 0 -4 623 c-5 663 -3 644 -56 721 -48 70 -169 112 -252 87z"/>
<path d="M1324 5845 c-153 -48 -261 -169 -294 -331 -19 -88 -8 -571 14 -649
68 -243 253 -424 489 -480 79 -19 214 -19 293 0 66 15 162 57 206 88 l27 20
41 -33 c69 -54 137 -82 225 -90 44 -4 83 -5 88 -3 4 2 7 196 7 431 0 393 2
430 19 467 37 82 128 128 206 105 89 -27 135 -93 135 -193 l0 -57 242 0 241 0
-6 98 c-4 53 -13 124 -22 157 -86 325 -434 540 -762 471 -68 -15 -146 -46
-215 -87 l-38 -23 -37 31 c-77 62 -164 93 -260 93 l-62 0 -3 -443 -3 -444 -27
-39 c-32 -45 -54 -61 -113 -79 -62 -18 -137 12 -180 73 l-30 44 -3 444 -3 444
-67 -1 c-37 -1 -85 -7 -108 -14z"/>
<path d="M6670 5849 c-454 -46 -794 -328 -825 -685 -13 -149 24 -284 114 -418
115 -169 315 -297 561 -356 80 -20 121 -23 265 -23 150 0 181 3 266 26 53 14
130 39 170 56 l73 31 30 -36 c58 -71 164 -100 260 -72 61 18 139 100 155 163
15 61 6 1089 -11 1145 -48 160 -270 215 -389 95 -19 -19 -39 -35 -46 -35 -6 0
-40 13 -75 29 -86 38 -209 67 -342 80 -60 6 -112 10 -115 10 -3 -1 -44 -5 -91
-10z m273 -515 c155 -40 277 -138 277 -223 0 -100 -142 -205 -322 -237 -153
-28 -321 1 -437 76 -112 72 -147 155 -98 229 42 64 138 122 247 152 84 23 250
25 333 3z"/>
<path d="M10101 5839 c-292 -61 -529 -251 -617 -494 -93 -256 -24 -529 182
-726 121 -115 218 -168 392 -217 87 -24 114 -26 257 -26 175 0 261 17 392 75
l62 28 20 -28 c11 -15 43 -40 72 -55 118 -65 268 -15 325 108 l24 51 0 547 c0
489 -2 552 -17 590 -25 66 -58 102 -116 131 -87 45 -182 34 -254 -28 -23 -19
-48 -35 -57 -35 -9 0 -39 11 -66 25 -28 14 -96 36 -152 50 -132 32 -306 34
-447 4z m391 -508 c70 -27 139 -79 169 -128 31 -49 31 -124 1 -173 -29 -48
-107 -106 -178 -132 -87 -31 -255 -31 -339 2 -198 77 -259 218 -147 342 39 43
88 72 172 100 77 25 241 20 322 -11z"/>
</g>
</svg>
